<?xml version="1.0" encoding="UTF-8" standalone="no"?>
<svg
   xmlns:svg="http://www.w3.org/2000/svg"
   xmlns="http://www.w3.org/2000/svg"
   width="285.79297pt"
   height="238.29688pt"
   viewBox="0 0 285.79296 238.29687"
   version="1.1">
  <g
     id="surface1"
     transform="translate(-294.82812,-190.78516)">
    <path
       style="fill:#075487;fill-opacity:1;fill-rule:nonzero;stroke:none"
       d="m 413.98047,429.08203 c -65.69531,0 -119.15235,-53.45703 -119.15235,-119.14844 0,-65.6914 53.45704,-119.14843 119.15235,-119.14843 31.80859,0 61.72265,12.39062 84.24219,34.89453 l -18.53907,18.53515 C 462.12109,226.67578 438.78516,217 413.98047,217 c -51.24219,0 -92.9336,41.67969 -92.9336,92.93359 0,51.25391 41.69141,92.9336 92.9336,92.9336 30.92578,0 59.72656,-15.3086 77.05859,-40.98828 l 21.73438,14.69531 c -22.21875,32.87109 -59.15235,52.50781 -98.79297,52.50781"
       id="path2" />
    <path
       style="fill:#7fca26;fill-opacity:1;fill-rule:nonzero;stroke:none"
       d="m 486.85547,322.39062 81.87109,-86.17578 c 7.97656,-8.34375 11.89453,-16.5625 11.89453,-25.03515 v -4.27735 c 0,-5.68359 -0.82031,-7.44922 -0.98828,-7.73047 -1.8164,0.10157 -5.04297,0.66407 -10.73828,4.37891 -5.04297,3.27344 -10.93359,8.29297 -17.52344,14.87109 l -82.58984,81.79688 c -5.16016,5.07031 -9.58984,9.0625 -13.28906,12.00781 -5.13282,4.04688 -8.3086,5.63281 -11.35547,5.63281 -4.19531,0 -9.94531,-1.97265 -13.52735,-11.36718 -2.03515,-5.35157 -3.73828,-14.10547 -5.21093,-26.83203 L 425,275.48828 c -0.83203,-7.96094 -3.05859,-17.5625 -8.81641,-17.5625 -7.24609,0 -13.80078,3.07031 -20.03515,9.42188 -6.2461,6.34765 -9.29297,12.95312 -9.29297,20.17187 0,16.05469 0.83203,31.13281 2.48437,44.82813 2.11328,17.53906 3.96875,23.63281 4.875,25.73046 1.73047,3.96875 5.91407,8.08985 12.48047,12.26563 8.2461,5.22266 13.17188,6.32031 15.85938,6.32031 0.84765,0 5.83984,-0.63672 21.28906,-13.21094 11.72656,-9.59765 26.20312,-23.39843 43.01172,-41.0625"
       id="path4" />
  </g>
</svg>
